# xmcd
#
# Track frame offsets:
#	150
#	24067
#	46708
#	75821
#	102549
#	124362
#	153768
#	176168
#	198107
#	220381
#	238924
#
# Disc length: 3546 seconds
# Revision: 0
# Processed by: cddbd v1.5.2PL0 Copyright (c) Steve Scherf et al.
# Submitted via: dBpowerAMP V12.0
#
DISCID=840dd80b
DTITLE=Nhu Quynh - Em van hoai yeu anh
DYEAR=1997
DGENRE=Pop
TTITLE0=Cho nguoi
TTITLE1=Nang len xom ngheo
TTITLE2=Lanh tron dem mua
TTITLE3=Tinh doi doi thay
TTITLE4=Mong ban dau
TTITLE5=Em van hoai yeu anh
TTITLE6=Giot sau trinh nu
TTITLE7=Dung noi xa nhau
TTITLE8=Thuo ay yeu nhau
TTITLE9=Hoi con nho hay quen
TTITLE10=Chanh long
EXTD=
EXTT0=
EXTT1=
EXTT2=
EXTT3=
EXTT4=
EXTT5=
EXTT6=
EXTT7=
EXTT8=
EXTT9=
EXTT10=
PLAYORDER=
